<?xml version="1.0" encoding="UTF-8"?>
<svg width="512" height="512" viewBox="0 0 512 512" xmlns="http://www.w3.org/2000/svg" role="img" aria-label="PotatoMarket logo">
  <title>PotatoMarket Logo</title>
  <defs>
    <linearGradient id="leafGradient" x1="0" y1="0" x2="0" y2="1">
      <stop offset="0%" stop-color="#2A6A2B"/>
      <stop offset="100%" stop-color="#4CAF50"/>
    </linearGradient>
  </defs>
  <!-- Outer yellow arc -->
  <path d="M64 240 A192 192 0 0 1 448 240" fill="none" stroke="#F2C94C" stroke-width="32" stroke-linecap="round"/>
  <!-- Brown soil arcs -->
  <path d="M128 360 C176 320 336 320 384 360" fill="none" stroke="#7B4B2B" stroke-width="28" stroke-linecap="round"/>
  <path d="M112 400 C176 360 336 360 400 400" fill="none" stroke="#7B4B2B" stroke-width="28" stroke-linecap="round"/>
  <!-- Stem and leaves -->
  <path d="M256 240 L256 180" stroke="#2A6A2B" stroke-width="24" stroke-linecap="round"/>
  <path d="M256 200 C276 180 300 160 296 128 C292 96 248 96 238 128 C228 160 240 190 256 200" fill="url(#leafGradient)" stroke="#2A6A2B" stroke-width="8"/>
  <path d="M256 200 C236 180 212 160 216 128 C220 96 264 96 274 128 C284 160 272 190 256 200" fill="url(#leafGradient)" stroke="#2A6A2B" stroke-width="8"/>
  <!-- Yellow dot -->
  <circle cx="256" cy="460" r="24" fill="#F2C94C" />
</svg>
